<svg width="138" height="70" viewBox="0 0 138 70" fill="none" xmlns="http://www.w3.org/2000/svg">
<rect y="-0.000244141" width="138" height="70" rx="10" fill="white"/>
<path d="M11.7102 52.4545V37.9091H12.642V52.4545H11.7102ZM14.625 42.4205C14.5644 41.8826 14.3144 41.4659 13.875 41.1705C13.4356 40.8712 12.8826 40.7216 12.2159 40.7216C11.7386 40.7216 11.3258 40.7973 10.9773 40.9489C10.6288 41.0966 10.358 41.3011 10.1648 41.5625C9.97538 41.8201 9.88068 42.1136 9.88068 42.4432C9.88068 42.7197 9.94508 42.9583 10.0739 43.1591C10.2064 43.3598 10.3788 43.5284 10.5909 43.6648C10.8068 43.7973 11.0379 43.9091 11.2841 44C11.5303 44.0871 11.767 44.1591 11.9943 44.2159L13.1307 44.5114C13.5019 44.6023 13.8826 44.7254 14.2727 44.8807C14.6629 45.036 15.0246 45.2405 15.358 45.4943C15.6913 45.7481 15.9602 46.0625 16.1648 46.4375C16.3731 46.8125 16.4773 47.2614 16.4773 47.7841C16.4773 48.4432 16.3068 49.0284 15.9659 49.5398C15.6288 50.0511 15.1383 50.4545 14.4943 50.75C13.8542 51.0455 13.0795 51.1932 12.1705 51.1932C11.2992 51.1932 10.5455 51.0549 9.90909 50.7784C9.27273 50.5019 8.77462 50.1098 8.41477 49.6023C8.05492 49.0909 7.85606 48.4848 7.81818 47.7841H9.57955C9.61364 48.2045 9.75 48.5549 9.98864 48.8352C10.2311 49.1117 10.5398 49.3182 10.9148 49.4545C11.2936 49.5871 11.7083 49.6534 12.1591 49.6534C12.6553 49.6534 13.0966 49.5758 13.483 49.4205C13.8731 49.2614 14.1799 49.0417 14.4034 48.7614C14.6269 48.4773 14.7386 48.1458 14.7386 47.767C14.7386 47.4223 14.6402 47.1402 14.4432 46.9205C14.25 46.7008 13.9867 46.5189 13.6534 46.375C13.3239 46.2311 12.9508 46.1042 12.5341 45.9943L11.1591 45.6193C10.2273 45.3655 9.48864 44.9924 8.94318 44.5C8.40152 44.0076 8.13068 43.3561 8.13068 42.5455C8.13068 41.875 8.3125 41.2898 8.67614 40.7898C9.03977 40.2898 9.5322 39.9015 10.1534 39.625C10.7746 39.3447 11.4754 39.2045 12.2557 39.2045C13.0436 39.2045 13.7386 39.3428 14.3409 39.6193C14.947 39.8958 15.4242 40.2765 15.7727 40.7614C16.1212 41.2424 16.303 41.7955 16.3182 42.4205H14.625ZM18.4162 51V49.7273L22.3537 45.6477C22.7741 45.2045 23.1207 44.8163 23.3935 44.483C23.67 44.1458 23.8764 43.8258 24.0128 43.5227C24.1491 43.2197 24.2173 42.8977 24.2173 42.5568C24.2173 42.1705 24.1264 41.8371 23.9446 41.5568C23.7628 41.2727 23.5147 41.0549 23.2003 40.9034C22.8859 40.7481 22.5317 40.6705 22.1378 40.6705C21.7211 40.6705 21.3575 40.7557 21.0469 40.9261C20.7363 41.0966 20.4976 41.3371 20.331 41.6477C20.1643 41.9583 20.081 42.322 20.081 42.7386H18.4048C18.4048 42.0303 18.5677 41.411 18.8935 40.8807C19.2192 40.3504 19.6662 39.9394 20.2344 39.6477C20.8026 39.3523 21.4484 39.2045 22.1719 39.2045C22.9029 39.2045 23.5469 39.3504 24.1037 39.642C24.6643 39.9299 25.1018 40.3239 25.4162 40.8239C25.7306 41.3201 25.8878 41.8807 25.8878 42.5057C25.8878 42.9375 25.8063 43.3598 25.6435 43.7727C25.4844 44.1856 25.206 44.6458 24.8082 45.1534C24.4105 45.6572 23.8575 46.2689 23.1491 46.9886L20.8366 49.4091V49.4943H26.0753V51H18.4162ZM27.7344 48.7273V47.3068L32.7628 39.3636H33.8821V41.4545H33.1719L29.5753 47.1477V47.2386H36.4673V48.7273H27.7344ZM33.2514 51V48.2955L33.2628 47.6477V39.3636H34.9276V51H33.2514ZM42.2884 51.1591C41.5762 51.1591 40.9361 51.0227 40.3679 50.75C39.8035 50.4735 39.3527 50.0947 39.0156 49.6136C38.6785 49.1326 38.4986 48.5833 38.4759 47.9659H40.1804C40.2221 48.4659 40.4437 48.8769 40.8452 49.1989C41.2467 49.5208 41.7277 49.6818 42.2884 49.6818C42.7353 49.6818 43.1312 49.5795 43.4759 49.375C43.8243 49.1667 44.0971 48.8807 44.294 48.517C44.4948 48.1534 44.5952 47.7386 44.5952 47.2727C44.5952 46.7992 44.4929 46.3769 44.2884 46.0057C44.0838 45.6345 43.8016 45.3428 43.4418 45.1307C43.0857 44.9186 42.6766 44.8106 42.2145 44.8068C41.8622 44.8068 41.508 44.8674 41.152 44.9886C40.7959 45.1098 40.508 45.2689 40.2884 45.4659L38.6804 45.2273L39.3338 39.3636H45.7315V40.8693H40.794L40.4247 44.125H40.4929C40.7202 43.9053 41.0213 43.7216 41.3963 43.5739C41.7751 43.4261 42.1804 43.3523 42.6122 43.3523C43.3205 43.3523 43.9512 43.5208 44.5043 43.858C45.0611 44.1951 45.4986 44.6553 45.8168 45.2386C46.1387 45.8182 46.2978 46.4848 46.294 47.2386C46.2978 47.9924 46.1274 48.6648 45.7827 49.2557C45.4418 49.8466 44.9683 50.3125 44.3622 50.6534C43.7599 50.9905 43.0687 51.1591 42.2884 51.1591ZM49.0895 51.108C48.7789 51.108 48.5118 50.9981 48.2884 50.7784C48.0649 50.5549 47.9531 50.286 47.9531 49.9716C47.9531 49.661 48.0649 49.3958 48.2884 49.1761C48.5118 48.9527 48.7789 48.8409 49.0895 48.8409C49.4001 48.8409 49.6671 48.9527 49.8906 49.1761C50.1141 49.3958 50.2259 49.661 50.2259 49.9716C50.2259 50.1799 50.1728 50.3712 50.0668 50.5455C49.9645 50.7159 49.8281 50.8523 49.6577 50.9545C49.4872 51.0568 49.2978 51.108 49.0895 51.108ZM56.108 51.1932C55.2102 51.1894 54.4432 50.9527 53.8068 50.483C53.1705 50.0133 52.6837 49.3295 52.3466 48.4318C52.0095 47.5341 51.8409 46.4527 51.8409 45.1875C51.8409 43.9261 52.0095 42.8485 52.3466 41.9545C52.6875 41.0606 53.1761 40.3788 53.8125 39.9091C54.4527 39.4394 55.2178 39.2045 56.108 39.2045C56.9981 39.2045 57.7614 39.4413 58.3977 39.9148C59.0341 40.3845 59.5208 41.0663 59.858 41.9602C60.1989 42.8504 60.3693 43.9261 60.3693 45.1875C60.3693 46.4564 60.2008 47.5398 59.8636 48.4375C59.5265 49.3314 59.0398 50.0152 58.4034 50.4886C57.767 50.9583 57.0019 51.1932 56.108 51.1932ZM56.108 49.6761C56.8958 49.6761 57.5114 49.2917 57.9545 48.5227C58.4015 47.7538 58.625 46.642 58.625 45.1875C58.625 44.2216 58.5227 43.4053 58.3182 42.7386C58.1174 42.0682 57.8277 41.5606 57.4489 41.2159C57.0739 40.8674 56.6269 40.6932 56.108 40.6932C55.3239 40.6932 54.7083 41.0795 54.2614 41.8523C53.8144 42.625 53.589 43.7367 53.5852 45.1875C53.5852 46.1572 53.6856 46.9773 53.8864 47.6477C54.0909 48.3144 54.3807 48.8201 54.7557 49.1648C55.1307 49.5057 55.5814 49.6761 56.108 49.6761ZM66.4361 51.1932C65.5384 51.1894 64.7713 50.9527 64.1349 50.483C63.4986 50.0133 63.0118 49.3295 62.6747 48.4318C62.3376 47.5341 62.169 46.4527 62.169 45.1875C62.169 43.9261 62.3376 42.8485 62.6747 41.9545C63.0156 41.0606 63.5043 40.3788 64.1406 39.9091C64.7808 39.4394 65.5459 39.2045 66.4361 39.2045C67.3262 39.2045 68.0895 39.4413 68.7259 39.9148C69.3622 40.3845 69.849 41.0663 70.1861 41.9602C70.527 42.8504 70.6974 43.9261 70.6974 45.1875C70.6974 46.4564 70.5289 47.5398 70.1918 48.4375C69.8546 49.3314 69.3679 50.0152 68.7315 50.4886C68.0952 50.9583 67.33 51.1932 66.4361 51.1932ZM66.4361 49.6761C67.224 49.6761 67.8395 49.2917 68.2827 48.5227C68.7296 47.7538 68.9531 46.642 68.9531 45.1875C68.9531 44.2216 68.8509 43.4053 68.6463 42.7386C68.4455 42.0682 68.1558 41.5606 67.777 41.2159C67.402 40.8674 66.955 40.6932 66.4361 40.6932C65.652 40.6932 65.0365 41.0795 64.5895 41.8523C64.1425 42.625 63.9171 43.7367 63.9134 45.1875C63.9134 46.1572 64.0137 46.9773 64.2145 47.6477C64.419 48.3144 64.7088 48.8201 65.0838 49.1648C65.4588 49.5057 65.9096 49.6761 66.4361 49.6761Z" fill="black"/>
<path d="M6.57955 16.2102V15.2727H13.125V16.2102H10.3807V24H9.32386V16.2102H6.57955ZM16.3295 24.1364C15.7386 24.1364 15.2202 23.9957 14.7741 23.7145C14.331 23.4332 13.9844 23.0398 13.7344 22.5341C13.4872 22.0284 13.3636 21.4375 13.3636 20.7614C13.3636 20.0795 13.4872 19.4844 13.7344 18.9759C13.9844 18.4673 14.331 18.0724 14.7741 17.7912C15.2202 17.5099 15.7386 17.3693 16.3295 17.3693C16.9205 17.3693 17.4375 17.5099 17.8807 17.7912C18.3267 18.0724 18.6733 18.4673 18.9205 18.9759C19.1705 19.4844 19.2955 20.0795 19.2955 20.7614C19.2955 21.4375 19.1705 22.0284 18.9205 22.5341C18.6733 23.0398 18.3267 23.4332 17.8807 23.7145C17.4375 23.9957 16.9205 24.1364 16.3295 24.1364ZM16.3295 23.233C16.7784 23.233 17.1477 23.1179 17.4375 22.8878C17.7273 22.6577 17.9418 22.3551 18.081 21.9801C18.2202 21.6051 18.2898 21.1989 18.2898 20.7614C18.2898 20.3239 18.2202 19.9162 18.081 19.5384C17.9418 19.1605 17.7273 18.8551 17.4375 18.6222C17.1477 18.3892 16.7784 18.2727 16.3295 18.2727C15.8807 18.2727 15.5114 18.3892 15.2216 18.6222C14.9318 18.8551 14.7173 19.1605 14.5781 19.5384C14.4389 19.9162 14.3693 20.3239 14.3693 20.7614C14.3693 21.1989 14.4389 21.6051 14.5781 21.9801C14.7173 22.3551 14.9318 22.6577 15.2216 22.8878C15.5114 23.1179 15.8807 23.233 16.3295 23.233ZM23.6772 17.4545V18.3068H20.2852V17.4545H23.6772ZM21.2738 15.8864H22.2795V22.125C22.2795 22.4091 22.3207 22.6222 22.4031 22.7642C22.4883 22.9034 22.5962 22.9972 22.7269 23.0455C22.8604 23.0909 23.0011 23.1136 23.1488 23.1136C23.2596 23.1136 23.3505 23.108 23.4215 23.0966C23.4925 23.0824 23.5494 23.071 23.592 23.0625L23.7965 23.9659C23.7283 23.9915 23.6332 24.017 23.511 24.0426C23.3888 24.071 23.234 24.0852 23.0465 24.0852C22.7624 24.0852 22.484 24.0241 22.2113 23.902C21.9414 23.7798 21.717 23.5938 21.538 23.3438C21.3619 23.0938 21.2738 22.7784 21.2738 22.3977V15.8864ZM27.1161 24.1534C26.7013 24.1534 26.3249 24.0753 25.9869 23.919C25.6488 23.7599 25.3803 23.5312 25.1815 23.233C24.9826 22.9318 24.8832 22.5682 24.8832 22.142C24.8832 21.767 24.957 21.4631 25.1048 21.2301C25.2525 20.9943 25.4499 20.8097 25.6971 20.6761C25.9442 20.5426 26.217 20.4432 26.5153 20.3778C26.8164 20.3097 27.119 20.2557 27.4229 20.2159C27.8207 20.1648 28.1431 20.1264 28.3903 20.1009C28.6403 20.0724 28.8221 20.0256 28.9357 19.9602C29.0522 19.8949 29.1104 19.7812 29.1104 19.6193V19.5852C29.1104 19.1648 28.9954 18.8381 28.7653 18.6051C28.538 18.3722 28.1928 18.2557 27.7298 18.2557C27.2496 18.2557 26.8732 18.3608 26.6005 18.571C26.3278 18.7812 26.136 19.0057 26.0252 19.2443L25.0707 18.9034C25.2411 18.5057 25.4684 18.196 25.7525 17.9744C26.0394 17.75 26.3519 17.5937 26.69 17.5057C27.0309 17.4148 27.3661 17.3693 27.6957 17.3693C27.9059 17.3693 28.1474 17.3949 28.4201 17.446C28.6957 17.4943 28.9613 17.5952 29.217 17.7486C29.4755 17.902 29.69 18.1335 29.8604 18.4432C30.0309 18.7528 30.1161 19.1676 30.1161 19.6875V24H29.1104V23.1136H29.0593C28.9911 23.2557 28.8775 23.4077 28.7184 23.5696C28.5593 23.7315 28.3477 23.8693 28.0835 23.983C27.8192 24.0966 27.4968 24.1534 27.1161 24.1534ZM27.2695 23.25C27.6673 23.25 28.0025 23.1719 28.2752 23.0156C28.5508 22.8594 28.7582 22.6577 28.8974 22.4105C29.0394 22.1634 29.1104 21.9034 29.1104 21.6307V20.7102C29.0678 20.7614 28.9741 20.8082 28.8292 20.8509C28.6871 20.8906 28.5224 20.9261 28.3349 20.9574C28.1502 20.9858 27.9698 21.0114 27.7937 21.0341C27.6204 21.054 27.4798 21.071 27.3718 21.0852C27.1104 21.1193 26.8661 21.1747 26.6388 21.2514C26.4144 21.3253 26.2326 21.4375 26.0934 21.5881C25.957 21.7358 25.8888 21.9375 25.8888 22.1932C25.8888 22.5426 26.0181 22.8068 26.2766 22.9858C26.538 23.1619 26.869 23.25 27.2695 23.25ZM32.9574 15.2727V24H31.9517V15.2727H32.9574ZM39.3675 15.2727V24H38.3107V15.2727H39.3675ZM42.3558 20.0625V24H41.3501V17.4545H42.3217V18.4773H42.407C42.5604 18.1449 42.7933 17.8778 43.1058 17.6761C43.4183 17.4716 43.8217 17.3693 44.3161 17.3693C44.7592 17.3693 45.147 17.4602 45.4794 17.642C45.8118 17.821 46.0703 18.0938 46.255 18.4602C46.4396 18.8239 46.532 19.2841 46.532 19.8409V24H45.5263V19.9091C45.5263 19.3949 45.3928 18.9943 45.1257 18.7074C44.8587 18.4176 44.4922 18.2727 44.0263 18.2727C43.7053 18.2727 43.4183 18.3423 43.1655 18.4815C42.9155 18.6207 42.718 18.8239 42.5732 19.0909C42.4283 19.358 42.3558 19.6818 42.3558 20.0625ZM51.0288 24.1364C50.4151 24.1364 49.8867 23.9915 49.4435 23.7017C49.0004 23.4119 48.6594 23.0128 48.4208 22.5043C48.1822 21.9957 48.0629 21.4148 48.0629 20.7614C48.0629 20.0966 48.185 19.5099 48.4293 19.0014C48.6765 18.4901 49.0202 18.0909 49.4606 17.804C49.9038 17.5142 50.4208 17.3693 51.0117 17.3693C51.4719 17.3693 51.8867 17.4545 52.256 17.625C52.6254 17.7955 52.9279 18.0341 53.1637 18.3409C53.3995 18.6477 53.5458 19.0057 53.6026 19.4148H52.5969C52.5202 19.1165 52.3498 18.8523 52.0856 18.6222C51.8242 18.3892 51.4719 18.2727 51.0288 18.2727C50.6367 18.2727 50.293 18.375 49.9975 18.5795C49.7049 18.7812 49.4762 19.0668 49.3114 19.4361C49.1495 19.8026 49.0685 20.233 49.0685 20.7273C49.0685 21.233 49.1481 21.6733 49.3072 22.0483C49.4691 22.4233 49.6964 22.7145 49.989 22.9219C50.2844 23.1293 50.631 23.233 51.0288 23.233C51.2901 23.233 51.5273 23.1875 51.7404 23.0966C51.9535 23.0057 52.1339 22.875 52.2816 22.7045C52.4293 22.5341 52.5344 22.3295 52.5969 22.0909H53.6026C53.5458 22.4773 53.4052 22.8253 53.1808 23.1349C52.9592 23.4418 52.6651 23.6861 52.2987 23.8679C51.935 24.0469 51.5117 24.1364 51.0288 24.1364ZM57.7319 24.1364C57.141 24.1364 56.6225 23.9957 56.1765 23.7145C55.7333 23.4332 55.3867 23.0398 55.1367 22.5341C54.8896 22.0284 54.766 21.4375 54.766 20.7614C54.766 20.0795 54.8896 19.4844 55.1367 18.9759C55.3867 18.4673 55.7333 18.0724 56.1765 17.7912C56.6225 17.5099 57.141 17.3693 57.7319 17.3693C58.3228 17.3693 58.8398 17.5099 59.283 17.7912C59.729 18.0724 60.0756 18.4673 60.3228 18.9759C60.5728 19.4844 60.6978 20.0795 60.6978 20.7614C60.6978 21.4375 60.5728 22.0284 60.3228 22.5341C60.0756 23.0398 59.729 23.4332 59.283 23.7145C58.8398 23.9957 58.3228 24.1364 57.7319 24.1364ZM57.7319 23.233C58.1808 23.233 58.5501 23.1179 58.8398 22.8878C59.1296 22.6577 59.3441 22.3551 59.4833 21.9801C59.6225 21.6051 59.6921 21.1989 59.6921 20.7614C59.6921 20.3239 59.6225 19.9162 59.4833 19.5384C59.3441 19.1605 59.1296 18.8551 58.8398 18.6222C58.5501 18.3892 58.1808 18.2727 57.7319 18.2727C57.283 18.2727 56.9137 18.3892 56.6239 18.6222C56.3342 18.8551 56.1197 19.1605 55.9805 19.5384C55.8413 19.9162 55.7717 20.3239 55.7717 20.7614C55.7717 21.1989 55.8413 21.6051 55.9805 21.9801C56.1197 22.3551 56.3342 22.6577 56.6239 22.8878C56.9137 23.1179 57.283 23.233 57.7319 23.233ZM62.233 24V17.4545H63.2045V18.4773H63.2898C63.4261 18.1278 63.6463 17.8565 63.9503 17.6634C64.2543 17.4673 64.6193 17.3693 65.0455 17.3693C65.4773 17.3693 65.8366 17.4673 66.1236 17.6634C66.4134 17.8565 66.6392 18.1278 66.8011 18.4773H66.8693C67.0369 18.1392 67.2884 17.8707 67.6236 17.6719C67.9588 17.4702 68.3608 17.3693 68.8295 17.3693C69.4148 17.3693 69.8935 17.5526 70.2656 17.919C70.6378 18.2827 70.8239 18.8494 70.8239 19.6193V24H69.8182V19.6193C69.8182 19.1364 69.6861 18.7912 69.4219 18.5838C69.1577 18.3764 68.8466 18.2727 68.4886 18.2727C68.0284 18.2727 67.6719 18.4119 67.419 18.6903C67.1662 18.9659 67.0398 19.3153 67.0398 19.7386V24H66.017V19.517C66.017 19.1449 65.8963 18.8452 65.6548 18.6179C65.4134 18.3878 65.1023 18.2727 64.7216 18.2727C64.4602 18.2727 64.2159 18.3423 63.9886 18.4815C63.7642 18.6207 63.5824 18.8139 63.4432 19.0611C63.3068 19.3054 63.2386 19.5881 63.2386 19.9091V24H62.233ZM75.407 24.1364C74.7763 24.1364 74.2322 23.9972 73.7749 23.7188C73.3203 23.4375 72.9695 23.0455 72.7223 22.5426C72.478 22.0369 72.3558 21.4489 72.3558 20.7784C72.3558 20.108 72.478 19.517 72.7223 19.0057C72.9695 18.4915 73.3132 18.0909 73.7536 17.804C74.1967 17.5142 74.7138 17.3693 75.3047 17.3693C75.6456 17.3693 75.9822 17.4261 76.3146 17.5398C76.647 17.6534 76.9496 17.8381 77.2223 18.0938C77.495 18.3466 77.7124 18.6818 77.8743 19.0994C78.0362 19.517 78.1172 20.0312 78.1172 20.642V21.0682H73.0717V20.1989H77.0945C77.0945 19.8295 77.0206 19.5 76.8729 19.2102C76.728 18.9205 76.5206 18.6918 76.2507 18.5241C75.9837 18.3565 75.6683 18.2727 75.3047 18.2727C74.9041 18.2727 74.5575 18.3722 74.2649 18.571C73.9751 18.767 73.7521 19.0227 73.5959 19.3381C73.4396 19.6534 73.3615 19.9915 73.3615 20.3523V20.9318C73.3615 21.4261 73.4467 21.8452 73.6172 22.1889C73.7905 22.5298 74.0305 22.7898 74.3374 22.9688C74.6442 23.1449 75.0007 23.233 75.407 23.233C75.6712 23.233 75.9098 23.196 76.1229 23.1222C76.3388 23.0455 76.5249 22.9318 76.6811 22.7812C76.8374 22.6278 76.9581 22.4375 77.0433 22.2102L78.0149 22.483C77.9126 22.8125 77.7408 23.1023 77.4993 23.3523C77.2578 23.5994 76.9595 23.7926 76.6044 23.9318C76.2493 24.0682 75.8501 24.1364 75.407 24.1364Z" fill="#A9A7B6"/>
<path d="M115 51.6666V43.3333" stroke="#52BD94" stroke-width="1.66667" stroke-linecap="round" stroke-linejoin="round"/>
<path d="M110 51.6666V38.3333" stroke="#52BD94" stroke-width="1.66667" stroke-linecap="round" stroke-linejoin="round"/>
<path d="M105 51.6667V46.6667" stroke="#52BD94" stroke-width="1.66667" stroke-linecap="round" stroke-linejoin="round"/>
</svg>
